#!OML:ASF E:\inclinewalkrobotboard\Project 1\Capture day 1\Session 1\subject1.ASF
:FULLY-SPECIFIED
:DEGREES
473
root 9.25453 27.7986 -10.6139 -168.294 1.16842 180.285
lowerback -6.62168 0.776338 -5.64467
upperback 2.18281 1.45177 1.86526
thorax 5.82604 0.476538 5.30723
lowerneck 12.3108 -0.831479 -6.44394
upperneck 13.9587 -4.3269 5.68877
head 2.72094 -3.15832 3.05083
rclavicle -4.62174e-015 1.59028e-015
rhumerus -44.7198 -30.6698 -66.6473
rradius 27.353
rwrist 14.7071
rhand -13.1397 -37.58
rfingers 7.12502
rthumb 12.9585 -67.1576
lclavicle -4.62174e-015 1.59028e-015
lhumerus -29.9088 5.02219 86.6277
lradius 26.1202
lwrist -22.0677
lhand -22.9973 -18.8329
lfingers 7.12502
lthumb 3.4457 11.119
rfemur -12.2598 8.24802 20.736
rtibia 15.6698
rfoot -30.3355 -5.17981
rtoes -20.8909
lfemur -10.3792 -12.1574 -19.3541
ltibia 15.3145
lfoot -33.5367 7.75351
ltoes -64.3579
474
root 9.25786 27.7983 -10.5999 -168.144 1.51252 180.369
lowerback -6.80713 0.986796 -5.63629
upperback 2.16462 1.74361 1.82497
thorax 5.87509 0.620018 5.29708
lowerneck 12.6432 -0.925377 -6.15609
upperneck 13.6282 -4.39654 5.65928
head 2.54615 -3.17251 2.99396
rclavicle -1.02871e-014 -5.96354e-016
rhumerus -44.7192 -30.7142 -66.7713
rradius 27.5015
rwrist 14.4459
rhand -13.231 -37.7639
rfingers 7.12502
rthumb 12.8705 -67.3471
lclavicle -1.02871e-014 -5.96354e-016
lhumerus -29.8446 4.68062 86.6681
lradius 26.087
lwrist -22.1311
lhand -23.0827 -18.957
lfingers 7.12502
lthumb 3.36324 10.9963
rfemur -12.6456 8.4612 20.7554
rtibia 15.8679
rfoot -30.2803 -5.0607
rtoes -20.8238
lfemur -10.5967 -11.995 -19.1864
ltibia 15.3136
lfoot -33.5843 7.65826
ltoes -64.1126
475
root 9.25053 27.7971 -10.6214 -168.25 1.14919 180.24
lowerback -7.00275 1.15469 -5.29656
upperback 2.215 1.96528 1.46724
thorax 6.03127 0.741238 4.75782
lowerneck 12.8504 -1.17645 -5.67418
upperneck 13.5634 -4.71928 5.87832
head 2.50568 -3.31208 2.98861
rclavicle 6.31141e-015 5.76476e-015
rhumerus -45.2565 -31.3455 -66.873
rradius 27.8733
rwrist 14.2169
rhand -13.2923 -38.2878
rfingers 7.12502
rthumb 12.8114 -67.8747
lclavicle 6.31141e-015 5.76476e-015
lhumerus -29.8633 3.45642 86.5427
lradius 26.0442
lwrist -22.0524
lhand -23.317 -19.1302
lfingers 7.12502
lthumb 3.13697 10.8265
rfemur -12.1793 7.92186 20.6775
rtibia 15.5114
rfoot -30.3008 -4.89145
rtoes -20.9231
lfemur -10.2478 -12.2679 -19.4848
ltibia 15.0879
lfoot -33.644 7.14352
ltoes -63.7956
476
root 9.2513 27.8015 -10.603 -168.273 1.20969 180.272
lowerback -6.82115 1.26541 -5.29023
upperback 2.21409 2.10387 1.46034
thorax 5.91006 0.814684 4.75533
lowerneck 12.8258 -1.16752 -5.98447
upperneck 13.6334 -4.79578 6.30492
head 2.56287 -3.36426 3.19803
rclavicle -1.19271e-015 -7.15625e-015
rhumerus -45.3316 -31.6751 -66.6377
rradius 27.8562
rwrist 14.1467
rhand -13.2611 -37.4203
rfingers 7.12502
rthumb 12.8415 -67.0053
lclavicle -1.19271e-015 -7.15625e-015
lhumerus -29.9147 3.11057 86.5934
lradius 26.1245
lwrist -22.0127
lhand -23.5906 -19.1762
lfingers 7.12502
lthumb 2.87271 10.7842
rfemur -12.3545 8.24002 20.6854
rtibia 15.682
rfoot -30.2886 -5.07946
rtoes -20.8669
lfemur -10.3076 -12.3069 -19.38
ltibia 15.0975
lfoot -33.6883 7.03866
ltoes -63.5557
477
root 9.25019 27.8016 -10.5953 -168.257 1.22735 180.355
lowerback -6.86313 1.14926 -5.29486
upperback 2.27624 1.94633 1.61115
thorax 6.01418 0.72956 4.90359
lowerneck 13.0693 -1.03853 -6.03798
upperneck 13.3371 -4.56209 5.98439
head 2.39306 -3.24636 3.09777
rclavicle 1.60022e-014 1.03368e-014
rhumerus -44.8278 -31.34 -66.7693
rradius 27.6761
rwrist 14.0403
rhand -13.0027 -36.9783
rfingers 7.12502
rthumb 13.0906 -66.5474
lclavicle 1.60022e-014 1.03368e-014
lhumerus -30.0357 3.53654 86.585
lradius 26.4143
lwrist -21.8995
lhand -23.3478 -18.8557
lfingers 7.12502
lthumb 3.10727 11.1014
rfemur -12.4284 8.29846 20.764
rtibia 15.7258
rfoot -30.2945 -5.05413
rtoes -20.7062
lfemur -10.324 -12.3139 -19.2731
ltibia 15.0366
lfoot -33.6475 7.04324
ltoes -63.4817
478
root 9.24719 27.8021 -10.5922 -168.25 1.19274 180.347
lowerback -6.94372 1.03487 -5.32013
upperback 2.36034 1.79955 1.67855
thorax 6.16534 0.648141 4.97815
lowerneck 12.6667 -0.869427 -6.42078
upperneck 13.6982 -4.40467 6.10039
head 2.58821 -3.18841 3.2003
rclavicle -3.47873e-015 -3.57812e-015
rhumerus -44.3597 -31.1211 -66.9682
rradius 27.5321
rwrist 14.0207
rhand -12.9112 -36.7864
rfingers 7.12502
rthumb 13.1788 -66.3499
lclavicle -3.47873e-015 -3.57812e-015
lhumerus -30.0179 3.90733 86.5158
lradius 26.5419
lwrist -21.7841
lhand -23.0444 -18.481
lfingers 7.12502
lthumb 3.40026 11.4716
rfemur -12.4336 8.13418 20.7409
rtibia 15.7375
rfoot -30.3091 -4.91823
rtoes -20.5151
lfemur -10.3244 -12.3556 -19.3045
ltibia 15.0236
lfoot -33.6224 6.89803
ltoes -63.3191
479
root 9.24638 27.8044 -10.5882 -168.265 1.14365 180.234
lowerback -7.02408 0.922325 -5.43014
upperback 2.48648 1.66694 1.70002
thorax 6.35955 0.568699 5.05429
lowerneck 12.3311 -0.736874 -6.74296
upperneck 13.8632 -4.24286 6.14263
head 2.70033 -3.11573 3.26874
rclavicle -7.55382e-015 1.07344e-014
rhumerus -43.95 -30.9055 -67.2303
rradius 27.5527
rwrist 13.972
rhand -12.9863 -36.751
rfingers 7.12502
rthumb 13.1064 -66.3191
lclavicle -7.55382e-015 1.07344e-014
lhumerus -29.7823 4.42611 86.3865
lradius 26.3215
lwrist -21.8619
lhand -23.0638 -18.4064
lfingers 7.12502
lthumb 3.38145 11.5465
rfemur -12.3921 7.94098 20.5994
rtibia 15.6645
rfoot -30.211 -4.77224
rtoes -20.2048
lfemur -10.3305 -12.4102 -19.4435
ltibia 15.0461
lfoot -33.6148 6.85007
ltoes -63.3474
480
root 9.2518 27.8048 -10.5805 -168.24 1.0769 180.205
lowerback -6.94853 0.816633 -5.61178
upperback 2.51084 1.53365 1.82666
thorax 6.35296 0.493197 5.27498
lowerneck 12.1296 -0.639611 -7.07269
upperneck 13.9022 -4.1109 6.08419
head 2.74521 -3.05808 3.30637
rclavicle -1.44616e-014 -5.96354e-015
rhumerus -43.6595 -30.3585 -67.4982
rradius 27.7233
rwrist 13.706
rhand -12.8682 -37.0676
rfingers 7.12502
rthumb 13.2203 -66.6284
lclavicle -1.44616e-014 -5.96354e-015
lhumerus -29.5427 5.23495 86.2544
lradius 25.8507
lwrist -22.1793
lhand -23.1254 -18.6629
lfingers 7.12502
lthumb 3.32202 11.291
rfemur -12.4231 7.88741 20.5795
rtibia 15.5993
rfoot -30.1188 -4.78874
rtoes -20.0506
lfemur -10.4559 -12.3991 -19.4209
ltibia 15.1231
lfoot -33.6027 6.91219
ltoes -63.5601
481
root 9.25907 27.8068 -10.5515 -168.156 1.20685 180.381
lowerback -6.66896 0.800713 -5.60617
upperback 2.45044 1.48869 1.97849
thorax 6.13088 0.47876 5.41784
lowerneck 12.1428 -0.538531 -7.2979
upperneck 13.8681 -3.9832 6.00588
head 2.72454 -3.00532 3.32049
rclavicle -1.88845e-014 -1.61016e-014
rhumerus -43.365 -29.8004 -67.7951
rradius 27.8424
rwrist 13.5132
rhand -12.883 -37.485
rfingers 7.12502
rthumb 13.206 -67.0467
lclavicle -1.88845e-014 -1.61016e-014
lhumerus -29.3437 5.99793 86.0897
lradius 25.3797
lwrist -22.6112
lhand -23.1947 -18.9348
lfingers 7.12502
lthumb 3.25506 11.0201
rfemur -12.8285 8.30039 20.7473
rtibia 15.8831
rfoot -30.1222 -5.05087
rtoes -20.115
lfemur -10.8339 -12.2623 -19.0392
ltibia 15.3584
lfoot -33.598 7.1166
ltoes -63.6926
482
root 9.26188 27.8055 -10.5398 -168.115 0.956845 180.531
lowerback -6.6086 0.623775 -5.4938
upperback 2.44835 1.23324 2.11792
thorax 6.12767 0.355463 5.47205
lowerneck 12.2633 -0.39715 -7.51568
upperneck 13.8349 -3.8202 5.91309
head 2.68225 -2.94165 3.32903
rclavicle -3.67752e-015 1.98785e-015
rhumerus -43.1099 -29.3203 -68.0398
rradius 27.9096
rwrist 13.451
rhand -13.1351 -37.5978
rfingers 7.12502
rthumb 12.963 -67.1751
lclavicle -3.67752e-015 1.98785e-015
lhumerus -29.3838 6.49456 85.9685
lradius 25.1911
lwrist -22.8354
lhand -23.3497 -18.9501
lfingers 7.12502
lthumb 3.10543 11.007
rfemur -12.8336 8.21159 20.9621
rtibia 15.7713
rfoot -30.0721 -5.15868
rtoes -20.1982
lfemur -11.0214 -12.2055 -18.7861
ltibia 15.4609
lfoot -33.5 7.17451
ltoes -63.9746
